<svg width="50" height="50" viewBox="0 0 100 100" fill="none" xmlns="http://www.w3.org/2000/svg" filter='invert(60%) sepia(65%) saturate(912%) hue-rotate(306deg) brightness(102%) contrast(94%)'>
<path d="M61.9048 50C61.9048 56.5748 56.5748 61.9048 50 61.9048C43.4252 61.9048 38.0952 56.5748 38.0952 50C38.0952 43.4252 43.4252 38.0952 50 38.0952C56.5748 38.0952 61.9048 43.4252 61.9048 50Z" fill="#212121"/>
<path fill-rule="evenodd" clip-rule="evenodd" d="M50 100C75.1891 100 96.0277 81.3735 99.4937 57.1429H70.2092C67.2676 65.4657 59.3301 71.4286 50 71.4286C40.6699 71.4286 32.7324 65.4657 29.7908 57.1429H0.506349C3.97227 81.3735 24.8109 100 50 100ZM29.7908 42.8571H0.506349C3.97227 18.6265 24.8109 0 50 0C75.1891 0 96.0277 18.6265 99.4937 42.8571H70.2092C67.2676 34.5343 59.3301 28.5714 50 28.5714C40.6699 28.5714 32.7324 34.5343 29.7908 42.8571ZM61.9048 50C61.9048 56.5748 56.5748 61.9048 50 61.9048C43.4252 61.9048 38.0952 56.5748 38.0952 50C38.0952 43.4252 43.4252 38.0952 50 38.0952C56.5748 38.0952 61.9048 43.4252 61.9048 50Z" fill="#212121"/>
</svg>
